PathFileType	4	(X/Y/Z)	C:/Users/beibeiliu/ov580/test_trc/User1\sequence.31_training_dense_right.trc
DataRate	CameraRate	NumFrames	NumMarkers	Units	OrigDataRate	OrigDataStartFrame	OrigNumFrames
120	120	22	19	mm	120	193	256
Frame#	Time	ThumbCMC			ThumbMCP			ThumbIP			ThumbTip			IndexMCP			IndexPIP			IndexTip			MiddleMCP			MiddlePIP			MiddleTip			RingMCP			RingPIP			RingTip			PinkyMCP			PinkyPIP			PinkyTip			BackHand1			BackHand2			BackHand3	
		X0	Y0	Z0	X1	Y1	Z1	X2	Y2	Z2	X3	Y3	Z3	X4	Y4	Z4	X5	Y5	Z5	X6	Y6	Z6	X7	Y7	Z7	X8	Y8	Z8	X9	Y9	Z9	X10	Y10	Z10	X11	Y11	Z11	X12	Y12	Z12	X13	Y13	Z13	X14	Y14	Z14	X15	Y15	Z15	X16	Y16	Z16	X17	Y17	Z17	X18	Y18	Z18	
192	1.6	252.848	-19.3938	34.6675	229.591	-0.328371	8.90284	213.233	-5.18396	-16.3414	189.546	-10.8781	-30.0994	257.429	-54.3742	-38.8597	243.702	-57.5425	-66.6982	214.85	-36.6608	-76.478	242.899	-89.3837	-36.2381	227.342	-88.3463	-67.649	198.476	-66.515	-77.6146	225.094	-99.085	-27.5358	205.801	-99.7551	-52.0064	183.171	-72.1524	-57.6327	196.082	-97.4694	-6.58176	174.2	-86.8904	-23.2707	164.381	-59.3485	-25.4629	238.186	-87.9181	27.4572	247.12	-83.2092	56.8873	264.488	-60.0122	35.5275	
193	1.60833	252.314	-20.9261	38.6207	229.958	-2.35952	6.91192	214.756	0.427326	-11.977	190.803	-7.61369	-30.9767	257.122	-54.9604	-35.9212	246.664	-55.1263	-67.7816	218.609	-35.2866	-78.5385	243.969	-87.0063	-37.7853	231.173	-89.2956	-66.3206	201.604	-68.8113	-79.0474	224.426	-98.9056	-22.1134	207.397	-96.2651	-54.5401	182.376	-73.5328	-59.5533	193.538	-99.7907	-0.919351	172.269	-87.8254	-23.533	163.533	-58.7817	-26.9957	237.365	-92.0865	25.1189	244.889	-87.2813	61.625	263.537	-61.2644	36.1155	
194	1.61667	253.948	-18.5558	36.3436	231.909	0.401414	8.9202	216.458	3.34378	-15.2082	194.221	-2.01628	-29.7191	255.769	-58.7342	-39.924	246.22	-56.2522	-69.8206	219.216	-44.5293	-81.6627	242.838	-90.7337	-37.3886	227.543	-93.8683	-67.0097	200.969	-75.7404	-83.3948	223.069	-99.6815	-24.4966	205.852	-101.205	-52.2303	181.899	-82.2404	-60.8877	194.331	-98.8832	-6.69944	173.4	-93.8282	-20.8884	165.525	-66.9132	-33.4456	236.725	-88.8983	24.4002	245.695	-86.6667	59.1053	264.052	-61.7873	32.2057	
195	1.625	253.248	-21.6296	33.204	231.95	-1.73802	8.46093	217.822	5.11814	-11.3617	197.115	2.26262	-29.0874	255.306	-58.7918	-40.7727	248.717	-58.5881	-70.5356	224.768	-45.9384	-90.6999	244.629	-89.0576	-37.5048	231.147	-95.922	-67.8086	204.139	-88.0362	-86.4	220.697	-102.271	-24.7344	206.575	-104.939	-51.8413	182.596	-87.2713	-65.9726	191.587	-101.337	-4.59082	171.185	-97.603	-19.583	160.945	-72.766	-39.6792	237.488	-85.9484	26.857	243.163	-85.3028	58.7467	261.15	-62.2482	33.646	
196	1.63333	253.089	-20.2804	34.1251	232.65	-0.219941	9.40534	218.979	8.13328	-10.3368	199.791	14.7473	-29.0049	256.503	-59.2255	-41.6562	249.738	-61.2202	-69.3836	232.409	-55.1653	-93.6262	242.435	-91.3435	-38.0071	232.171	-100.138	-67.4257	207.791	-95.1008	-93.9369	222.888	-101.146	-24.6932	205.834	-109.434	-52.0015	183.23	-97.4052	-69.1066	192.755	-100.023	-3.98657	168.594	-98.7599	-21.156	153.9	-89.2571	-38.6848	235.068	-92.47	25.1771	241.585	-85.4058	61.6744	259.563	-63.0419	32.1526	
197	1.64167	253.146	-20.1182	35.2135	234.123	2.68245	8.70614	222.066	13.0257	-11.7442	203.98	19.0514	-25.1778	254.955	-59.3174	-39.1982	250.316	-63.9465	-70.8895	236.182	-64.541	-91.9362	243.284	-88.6445	-34.2701	236.329	-100.331	-63.1333	213.56	-104.014	-94.8743	222.316	-100.682	-24.736	206.039	-111.766	-52.2205	190.206	-104.692	-72.3417	189.779	-102.639	1.20778	169.388	-102.52	-19.5549	156.355	-95.9305	-39.1452	233.878	-89.3255	24.3808	243.177	-82.0474	61.1398	262.564	-61.3543	31.223	
198	1.65	252.284	-21.219	34.6595	234.218	0.203427	15.0797	222.958	13.7688	-9.02466	206.478	26.7663	-27.7324	255.867	-57.949	-36.8746	250.812	-66.0381	-68.2919	242.907	-66.6042	-95.8649	239.772	-93.0554	-34.1402	237.628	-100.445	-65.7425	222.683	-108.538	-93.3791	219.737	-102.713	-22.0026	209.323	-113.831	-52.3094	195.26	-110.53	-71.8582	189.333	-103.573	-0.840092	169.288	-106	-17.2414	156.524	-106.69	-35.6311	233.722	-88.8583	27.2752	243.803	-84.2831	56.5107	258.709	-63.0614	33.322	
199	1.65833	251.368	-21.4026	30.7356	233.811	3.98878	9.86266	222.249	13.6385	-11.3135	208.735	26.6234	-25.2404	252.766	-61.2525	-40.7086	253.881	-63.2538	-65.2722	244.888	-70.5877	-90.0478	241.259	-92.6979	-35.4429	238.784	-100.888	-61.5185	224.709	-114.192	-91.0104	220.017	-103.62	-22.0341	213.123	-113.576	-51.0684	195.464	-117.772	-73.4482	189.864	-103.445	1.97538	171.085	-108.623	-17.2053	158.226	-110.885	-36.4589	232.124	-91.6755	24.9348	241.932	-83.8804	60.1087	262.368	-60.2756	31.5771	
200	1.66667	251.029	-20.2687	33.3933	233.412	2.16304	15.6928	222.569	15.7049	-9.70562	210.508	29.8149	-23.602	254.104	-58.6014	-38.3571	252.675	-65.9853	-66.2954	246.896	-72.7853	-89.6898	240.122	-93.7077	-35.1687	238.074	-104.596	-59.858	229.198	-117.117	-87.7716	220.1	-105.37	-21.8286	211.288	-117.625	-48.8367	197.093	-123.174	-73.4792	189.075	-105.447	2.37658	172.923	-109.666	-17.6746	158.91	-115.974	-35.9122	236.269	-88.164	25.1365	240.446	-85.3295	62.5679	259.338	-62.5816	31.6354	
201	1.675	252.813	-18.1304	35.5248	234.073	4.21922	12.2086	224.555	15.6467	-5.95644	211.194	29.6822	-23.3638	254.052	-58.9842	-37.2118	252.635	-68.5293	-65.2061	249.338	-74.3864	-88.4118	239.658	-93.9497	-33.1292	242.093	-103.107	-61.1313	233.249	-119.021	-89.8907	219.476	-105.194	-18.906	212.696	-119.57	-44.5462	203.253	-123.234	-71.6866	190.508	-104.467	2.14736	174.857	-112.026	-13.0629	159.495	-117.544	-34.8489	231.507	-91.3874	26.7171	242.18	-84.0826	58.7282	259.06	-58.3566	33.4453	
202	1.68333	251.32	-19.483	32.31	233.563	2.77955	14.1733	224.049	16.7965	-9.22433	210.578	26.1067	-25.7869	256.301	-59.8965	-40.6009	253.589	-68.3851	-65.173	250.369	-77.3818	-88.7297	242.515	-90.0254	-32.6242	241.225	-106.282	-60.6293	236.683	-115.754	-86.8662	222.722	-104.353	-22.529	213.94	-119.845	-48.0215	203.305	-124.787	-69.2342	189.238	-106.161	1.04214	176.252	-111.529	-16.5209	159.852	-119.338	-34.546	234.334	-90.7327	28.9081	238.319	-85.6762	59.0516	258.326	-60.8936	32.602	
203	1.69167	253.372	-17.0848	29.633	235.166	4.70457	12.8206	222.74	14.3437	-10.5399	210.108	27.3991	-27.4304	255.777	-60.7057	-41.7725	256.437	-66.7632	-65.2469	254.339	-75.6872	-92.4283	243.156	-94.5594	-35.9238	242.196	-105.538	-60.7277	235.515	-119.968	-87.7072	220.672	-106.609	-21.5399	214.122	-119.783	-50.5568	199.874	-125.501	-72.634	189.263	-106.695	-3.56429	174.166	-110.076	-19.518	160.492	-116.02	-36.0844	234.521	-90.456	26.4262	239.189	-86.6934	62.5905	260.823	-62.3301	29.8968	
204	1.7	251.887	-19.4027	32.7465	232.374	0.0873272	11.0276	222.82	14.0743	-11.1088	209.262	25.2571	-25.6745	255.082	-64.7679	-42.0026	256.341	-68.177	-67.5276	252.136	-79.2636	-92.871	241.914	-96.041	-34.8124	240.375	-108.822	-60.093	237.995	-119.063	-88.7683	221.79	-107.549	-25.3969	210.588	-121.246	-50.6198	199.592	-121.609	-75.0892	190.436	-105.903	-1.72696	170.661	-110.595	-16.4822	158.616	-112.192	-37.2978	233.046	-89.8359	26.7123	240.153	-86.2543	58.4723	259.734	-62.2634	30.8209	
205	1.70833	251.225	-20.1267	30.253	234	2.94519	11.8796	221.03	12.1914	-10.8566	206.389	20.2428	-28.4261	254.242	-64.5913	-42.7517	255.023	-69.6242	-69.1235	251.569	-76.5581	-88.4392	240.76	-94.7382	-32.3894	239.466	-107.952	-59.6466	234.431	-122.384	-90.6492	219.175	-109.467	-24.5587	211.128	-116.917	-49.8223	195.879	-116.314	-73.5979	192.012	-103.797	-0.901742	171.921	-108.023	-17.3584	155.226	-105.745	-39.5792	233.712	-94.0219	26.3606	243.609	-84.0426	59.3906	260.29	-64.7282	30.0118	
206	1.71667	251.801	-20.6028	28.6105	230.534	0.894583	7.99633	217.549	12.0454	-14.921	202.96	20.0054	-29.9816	254.017	-65.4843	-41.9702	253.867	-69.0895	-67.0315	249.484	-77.6442	-91.9496	241.682	-94.4158	-32.1146	238.726	-108.592	-59.3836	233.364	-118.875	-90.1187	218.543	-106.343	-22.0699	204.737	-116.271	-53.0125	186.232	-114.106	-75.2922	190.084	-103.866	-1.18419	170.492	-103.978	-20.8735	154.361	-98.6943	-38.2421	236.097	-90.357	24.9446	240.6	-86.4384	56.9459	258.163	-64.4836	29.289	
207	1.725	250.728	-19.8668	31.4792	228.581	-1.97715	8.0195	216.719	11.6689	-14.8475	199.631	18.2909	-29.5201	255.498	-63.2789	-41.8643	253.328	-71.2778	-67.4677	247.07	-75.0499	-91.1125	241.801	-95.8837	-37.2199	238.545	-107.626	-60.1948	230.711	-116.472	-92.7643	217.725	-104.841	-22.2574	201.683	-113.989	-54.3934	184.679	-109.588	-71.7309	190.339	-102.518	-1.2001	165.934	-102.597	-18.4427	153.6	-92.157	-38.5302	236.224	-91.1997	25.8516	241.641	-86.9011	61.5164	260.292	-63.6354	32.0649	
208	1.73333	250.205	-19.3415	30.0994	228.802	0.435874	10.0437	214.301	7.81237	-15.1931	195.938	14.1499	-34.0839	256.643	-61.9543	-39.0683	255.979	-68.0616	-64.8388	246.223	-73.4775	-96.6209	243.219	-94.4034	-36.7947	237.622	-108.618	-61.089	225.819	-115.369	-90.5376	220.013	-103.821	-24.4026	206.083	-110.916	-50.8559	182.335	-105.41	-70.6787	187.563	-103.548	-5.20264	168.279	-102.402	-16.8432	154.717	-87.5297	-37.514	235.872	-89.0547	25.5847	243.485	-85.9524	57.2056	258.859	-64.5324	28.066	
209	1.74167	250.471	-17.5386	30.7329	226.8	-1.35984	7.51155	212.779	5.39696	-13.5362	192.867	10.3265	-33.5991	255.879	-61.2982	-37.1427	253.791	-69.3546	-67.4722	243.641	-72.1225	-92.173	241.18	-94.4627	-33.2445	235.734	-108.512	-62.776	222.133	-109.689	-93.1478	220.091	-104.428	-25.2162	199.708	-111.251	-55.2923	176.517	-100.067	-71.405	189.414	-103.346	-5.39662	168.407	-97.5285	-22.8217	154.891	-81.541	-37.771	233.405	-92.9751	24.9906	240.44	-86.3338	58.5728	257.129	-65.0852	29.6589	
210	1.75	249.038	-22.9893	32.2011	225.911	-5.48186	6.08288	210.488	2.09999	-15.8651	193.154	8.21334	-29.1436	256.492	-62.7804	-40.3827	253.355	-70.1176	-66.5658	240.871	-67.2069	-97.2407	240.623	-97.9238	-36.9626	236.391	-105.264	-66.3513	216.609	-107.269	-91.507	219.041	-104.631	-23.1582	201.48	-107.757	-54.8781	179.094	-95.1954	-69.4882	190.784	-103.385	-1.49359	170.103	-96.3035	-21.4326	157.251	-74.8252	-35.0489	235.608	-89.6398	25.7829	243.878	-85.6543	60.5416	260.013	-63.9748	30.9578	
211	1.75833	250.005	-18.9841	29.6456	227.735	0.10325	8.87722	211.38	5.61728	-16.0794	189.486	6.78829	-33.0362	256.263	-62.9049	-42.0661	253.143	-68.0992	-69.6839	235.475	-63.163	-97.1026	241.934	-94.0315	-34.8706	233.055	-104.531	-64.3699	211.364	-102.645	-91.4347	218.514	-103.81	-27.7349	197.791	-108.936	-53.7818	173.962	-92.8937	-64.8996	188.731	-103.289	-4.29224	172.813	-96.5271	-20.6405	156.259	-69.6902	-32.9193	236.259	-90.9018	23.6768	240.44	-85.9766	60.467	259.518	-65.9712	29.1398	
212	1.76667	249.123	-18.6003	28.0827	224.964	-4.64331	8.73994	209.538	4.53645	-16.5151	186.178	1.26562	-34.2459	256.246	-62.0044	-40.9721	251.177	-66.6418	-68.1308	230.86	-60.1287	-95.0329	240.916	-96.2636	-37.2611	232.865	-101.766	-65.2426	206.543	-98.0918	-89.4635	215.892	-107.07	-26.9098	198.136	-104.901	-55.0928	173.661	-87.8562	-63.3113	187.91	-102.901	-5.43164	169.63	-92.6093	-22.8479	157.799	-65.6777	-29.6262	236.776	-90.967	26.0429	242.467	-83.4572	56.8765	260.109	-62.6901	29.6633	
213	1.775	248.091	-19.5402	30.8411	224.154	-2.85165	3.74893	206.575	0.491675	-18.4647	183.418	-6.86775	-35.3335	254.707	-60.1561	-38.003	249.315	-65.5277	-69.2489	225.377	-56.1978	-93.4546	241.146	-93.0224	-34.1442	230.277	-101.986	-67.0263	198.245	-92.3612	-88.3021	219.696	-102.796	-28.3982	199.582	-104.33	-53.1178	174.327	-81.9328	-62.6714	191.292	-102.214	-4.7124	169.558	-92.4515	-21.7103	162.961	-65.2429	-29.3404	236.844	-90.7569	29.0706	242.471	-84.3829	61.3732	261.199	-60.5919	33.3805	
